/* XPM */
static char *_f50e082fc8d44f8da2f5c36375979d4LcgcY8CdVxGz5nLF[] = {
/* columns rows colors chars-per-pixel */
"50 61 107 2 ",
"   c None",
".  c #010101",
"X  c #0B0202",
"o  c #060708",
"O  c #07090A",
"+  c #090C0E",
"@  c #130202",
"#  c #1C0303",
"$  c #0F1517",
"%  c #101517",
"&  c #13191C",
"*  c #230404",
"=  c #2B0404",
"-  c #320505",
";  c #3B0506",
":  c #171E21",
">  c #1D262B",
",  c #1E292D",
"<  c #222D31",
"1  c #263439",
"2  c #29373C",
"3  c #430606",
"4  c #4B0707",
"5  c #540707",
"6  c #560708",
"7  c #580708",
"8  c #550808",
"9  c #5C0808",
"0  c #630809",
"q  c #6B0909",
"w  c #760A0A",
"e  c #790A0A",
"r  c #2D3D43",
"t  c #33454C",
"y  c #374A52",
"u  c #384C53",
"i  c #3B4F58",
"p  c #3E525B",
"a  c #40565F",
"s  c #415761",
"d  c #455D66",
"f  c #465F68",
"g  c #476069",
"h  c #4A646E",
"j  c #4B6671",
"k  c #4F6A75",
"l  c #526C77",
"z  c #526E79",
"x  c #54717C",
"c  c #830B0B",
"v  c #8B0C0C",
"b  c #930D0D",
"n  c #9A0D0D",
"m  c #A40E0E",
"M  c #AC0F0F",
"N  c #B20F0F",
"B  c #B61010",
"V  c #BC1010",
"C  c #C51111",
"Z  c #C81111",
"A  c #597682",
"S  c #5B7985",
"D  c #5E7E8B",
"F  c #61818F",
"G  c #648593",
"H  c #678997",
"J  c #6C909F",
"K  c #7A97A4",
"L  c #759AAA",
"P  c #7AA1B2",
"I  c #80A8BA",
"U  c #87B2C5",
"Y  c #88B3C6",
"T  c #8BB6CA",
"R  c #8EBACE",
"E  c #99B6C2",
"W  c #92BFD3",
"Q  c #93C1D5",
"!  c #97C6DB",
"~  c #98C7DC",
"^  c #99C8DD",
"/  c #A5CDDE",
"(  c #AECCD9",
")  c #A4CDE0",
"_  c #A5CEE1",
"`  c #A8D0E2",
"'  c #B3D6E5",
"]  c #B5D7E6",
"[  c #BFDCE8",
"{  c #BEDCE9",
"}  c #C0DEEA",
"|  c #C3DEEA",
" . c #C3DFEA",
".. c #C5E0EC",
"X. c #C9E2EC",
"o. c #CDE4EE",
"O. c #D0E7F1",
"+. c #E7F2F6",
"@. c #E9F4F7",
"#. c #ECF7FA",
"$. c #F9FCFC",
"%. c #FAFDFC",
"&. c #FBFEFD",
"*. c #FCFEFD",
"=. c #FDFFFD",
"-. c #FDFFFE",
";. c #FFFFFE",
/* pixels */
"                                                                                                    ",
"                                                                                                    ",
"                                                                                                    ",
"                                                                                                    ",
"                                                                                                    ",
"                                                                                                    ",
"                                                                                                    ",
"                                                                                                    ",
"                                          . . . . . . . . .                                         ",
"                                      . . . . . . . . . . . . . .                                   ",
"                                    . . . . @ # # * * * * @ . . . . .                               ",
"                                  . . . * w m N N N B B N m w = . . . .                             ",
"                                . . . = m Z C C C C C C C C Z N 8 . . . .                           ",
"                                . . @ n Z C C C C C C Z Z Z Z Z C q X . . .                         ",
"                              . . . 9 C C C C C C V M n v v c e c c - . . .                         ",
"                              . . @ n Z C C C M 0 - # X . . . . . . . . . . .                       ",
"                              . . = M C C C m = . . . $ > 2 t i s s y < + . . .                     ",
"                              . . 3 B C C C 8 . . & A I R Q / { .. .{ ( K < . . .                   ",
"                              . . 6 B C C V = . O l ^ ^ ^ ) @.*.*.*.*.%.#.E < . .                   ",
"                            . . X 0 B C C V = . > A W ^ ~ ) +.%.%.*.*.*.*.O.L % . .                 ",
"                      . . . . . @ q N C C B * . 2 j L ~ ~ ~ ) ] '  .o.X. .` ~ p . .                 ",
"                  . . . . . . . # w N C C B * . r h k P ! ^ ~ ~ ~ ~ ~ ^ ^ ! Y p . .                 ",
"                . . . @ ; ; @ . * w M C C B * . 1 h h k J T ! ! ! Q R U P H z r . .                 ",
"                . . X c C V 3 . - e M C C C ; . & d h h h z D G F S x k h h h 1 . .                 ",
"                . . ; V C V - . ; e M C C C q . . 1 h h h h h h h h h h h h t + . .                 ",
"                . . 7 C C V = . ; e m C C C m # . o r g j h h h j j h f u , O . . .                 ",
"                . . 6 M B m # . ; w n C C C C q . . . : r p a p u t 1 & o . . . .                   ",
"                . . 5 e e q @ . ; w v C C C C V 4 . . . . O + O . . . . X @ . . .                   ",
"                . . 6 e w q @ . 3 e c V C C C C V e ; @ . . . . X # ; 0 b b @ .                     ",
"                . . 6 e e q @ . 3 e e M C C C C C Z V m v c c c n M V C Z m @ . .                   ",
"                . . 7 e e q @ . 3 e w n C C C C C C C C Z Z Z Z C C C C C b X . .                   ",
"                . . 7 e e q @ . 3 e w v C C C C C C C C C C C C C C C C C c X . .                   ",
"                . X 9 e e q @ . 3 e w e B C C C C C C C C C C C C C C C C c @ . .                   ",
"                . X 0 e e q @ . 3 e w w m C C C C C C C C C C C C C C C V e # . .                   ",
"                . X 0 e e q @ . ; e w w b C C C C C C C C C C C C C C C M w @ . .                   ",
"                . X 0 e e q @ . 3 e w w e N C C C C C C C C C C C C C C b q @ . .                   ",
"                . X 9 e w w # . 3 e w w w c B C C C C C C C C C C C C M e 0 X . .                   ",
"                . X 9 e w w # . 3 e w w w w c M C C C C C C C C C C M c e 0 X . .                   ",
"                . . 6 e w w * . 3 e w w w w w e v n m M N N N M m v e w e 6 . . .                   ",
"                . . 3 e w w * . ; e w w w w w w w w w e e e e e w w w w e 4 . .                     ",
"                . . @ 0 e e = . - e w w w w w w w e e e w w w w w w w w w - . .                     ",
"                . . . @ 3 4 @ . - w w w w w w w w 0 0 q w w w w w w w e q # . .                     ",
"                  . . . . . . . = w w w w w w e 3 X X @ # = - = = ; q e 9 X . .                     ",
"                    . . . . . . * w w w w w w w * . . . . . . X = 0 w e 4 . . .                     ",
"                            . . @ q e w w w w w # . . . . . X 6 w e w e ; . . .                     ",
"                            . . X 0 e w w w w w # . .   . . @ q e w w e ; . .                       ",
"                            . . . 9 e w w w w w # . .   . . @ q e w w e ; . .                       ",
"                              . . 5 e w w w w w # . .   . . X 0 e e e e ; . .                       ",
"                              . . 3 e w w w e 0 X . .     . . - 9 0 0 6 # . .                       ",
"                              . . * w e e e w ; . . .     . . . X X X . . .                         ",
"                              . . . = 3 4 3 * . . .         . . . . . . .                           ",
"                                . . . . . . . . . .                                                 ",
"                                  . . . . . . .                                                     ",
"                                                                                                    ",
"                                                                                                    ",
"                                                                                                    ",
"                                                                                                    ",
"                                                                                                    ",
"                                                                                                    ",
"                                                                                                    ",
"                                                                                                    "
};
