/* XPM */
static char * Untitled_xpm[] = {
"32 32 55 1",
" 	c #4E4479",
".	c #58476F",
"+	c #5E4E6B",
"@	c #634A62",
"#	c #6C5669",
"$	c #644754",
"%	c #6B4F59",
"&	c #5A3E57",
"*	c #533F65",
"=	c #663F3B",
"-	c #603831",
";	c #5C3432",
">	c #4F304A",
",	c #5B3A46",
"'	c #592E2B",
")	c #532B33",
"!	c #4E2733",
"~	c #4C2B41",
"{	c #54374F",
"]	c #48202F",
"^	c #3B1737",
"/	c #301243",
"(	c #49273C",
"_	c #48253A",
":	c #462035",
"<	c #471C29",
"[	c #2B0F49",
"}	c #1D0752",
"|	c #52282F",
"1	c #422241",
"2	c #2D1756",
"3	c #1F0C58",
"4	c #180557",
"5	c #49345C",
"6	c #332160",
"7	c #563A55",
"8	c #473E76",
"9	c #33266D",
"0	c #21105E",
"a	c #524E85",
"b	c #595381",
"c	c #4D467E",
"d	c #4D4B8A",
"e	c #3A2A63",
"f	c #391F4F",
"g	c #44284C",
"h	c #3E2148",
"i	c #522424",
"j	c #1B095A",
"k	c #351E5A",
"l	c #251667",
"m	c #2D2277",
"n	c #352C81",
"o	c #3B358E",
"p	c #3E3B93",
" .+@########################@@. ",
"..$$%%%%%%%%%%%%%%%%%%%%%%%$$&**",
"*&==========================-;>>",
"&,;''''''))))))))))))))'''''''!~",
"&{!]]]]]^^////////////^^]]]]]]((",
"&{_::]<<^[}}}}}}}}}}}}[^<<]:::_(",
"&{(:)''|1234444444444321|'')!:_(",
"&{~~,,=,5634444444444365,=,,~(((",
"&7{7*.++8904444444444098++.*7>~_",
"&77* abb8904444444444098bba *{~_",
"&&7*cda e23444444444432e adc*{~_",
"&7{58885f[}4444444444}[f58885>~_",
"&{>geeg_^/}4444444444}/^_geeg~((",
"&{~1fh]<^/}4444444444}/^<]hf1_((",
"&{(:_!i<^[}4444444444}[^<i!_::_(",
"&{(]|'i]/2j444444444442/]i'|]:_(",
"&{(!;;)1klj4444444444jlk1);;!:_(",
"&{(!--)h6lj4444444444jl6h)--!:_(",
"&{(!--)120j4444444444j021)--!:_(",
"&{(!;-':f0j444444444430f:'-;!:_(",
"&{(!;-'|h23444444444432h|'-;!__(",
"&{~~,,=,5634444444444365,=,,~(((",
"&7{7*.++8904444444444098++.*7>~_",
"&77* abb8904444444444098bba *{~_",
"&&7*cda e2344444jjjjj32e adc*{~_",
"&7{58885f[}44jj0lllll02f58885>~_",
"&{>geeg_^/}4j0lmmnnnn9f^_geeg~((",
"&{~1fh]<^/30llmnooooonf^<]hf1_((",
"&{(:_!i<^2lmmnoopppponk^<i!_::_(",
"&{(]||]:f6mnoopppppppn9f:]||]:_(",
"&{(]!(hk9noopppppppppon9kh(!]:_(",
"&{(]_1k9noppppppppppppon9k1_::_("};
