/* XPM */
static char * floor_xpm[] = {
"32 32 55 1",
" 	c #6C77A5",
".	c #7A87AE",
"+	c #94A4BE",
"@	c #A2B4C7",
"#	c #A1B4C6",
"$	c #95A5BE",
"%	c #A3B5C7",
"&	c #707BA8",
"*	c #7581AB",
"=	c #6F7AA7",
"-	c #7A86AD",
";	c #8A99B8",
">	c #7986AD",
",	c #9FB1C5",
"'	c #98A9C1",
")	c #96A6C0",
"!	c #A4B6C9",
"~	c #8491B4",
"{	c #808DB2",
"]	c #8E9DBB",
"^	c #6B76A4",
"/	c #7783AD",
"(	c #9AA9C3",
"_	c #7283A3",
":	c #779D99",
"<	c #86A6A2",
"[	c #90A7B7",
"}	c #7B86B0",
"|	c #5D7B8B",
"1	c #3D8654",
"2	c #6B8792",
"3	c #7D86B4",
"4	c #607F84",
"5	c #308833",
"6	c #2E872A",
"7	c #548366",
"8	c #668493",
"9	c #869AB2",
"0	c #57943C",
"a	c #45971E",
"b	c #649E35",
"c	c #539F19",
"d	c #228C10",
"e	c #579F20",
"f	c #529534",
"g	c #349415",
"h	c #65A61E",
"i	c #66779C",
"j	c #88ACA7",
"k	c #4E9A5E",
"l	c #3A9332",
"m	c #9CB2BE",
"n	c #74A56D",
"o	c #99B3AA",
"p	c #6F8C89",
" .+@####@$.          .$@########",
" .+@###@%$.&*......*=-$%@#######",
" .+@###@%$-*;$$++$$;*>$%@#####@@",
" -$%%@@,';*>)!%@@%%'~{]',@@@@,'+",
"^>$!%%%'~*=-)!%##@@,']{~'%%%%'~/",
">{])$$$]{>>{]',@@##@%$>*;$$$$]{>",
")]{>>>>{]))]{~(!%##@%$-=*>>>>{]$",
"!).=*>>~'!!$>_:<[(,%%$-=*>>>>~'!",
"!)-*;$+',%%)}|112~(!!$>*;$$++',@",
");*>)!%@#@%)3456789))]{~'%%@@@@#",
">*=-)!%##@%)340a61833{]',@@##@@@",
">>>{]',@@,(987bcd67442[!@###@,'$",
"+$$]{~'!!(~815ecddf051<!@##@%'~>",
"%!!)>*;))9876gceggccd5:(,@@,';*^",
"%!!)-=*}}816achheehcd54~(!!'~*= ",
"+$$;/&*}}45dchhhceb051|/;))]{>-.",
">>>*&/;)):5dchhcg5744|i&/.-{]$$$",
">>>*=.)!!jklaeb051833}./&^^>$!%@",
"+$$;*-)!%mjnl674489))));/^^>$%%#",
"@%!)>*;',!!jk1|&/~'%%%!).=/~'@##",
"#%!)-=*~'!!mj:_/;(,@@%!)-*;(,###",
"#,']{>>{]$$$)]/-)!%@@,';/_<om!@#",
"@'~{]))]{>>.}/&.)!%%%'~/&2nno!@#",
"!$>/$!!'~>>>>*&/;$$$$]{_|7bbnjm@",
"!$>/+%%,'++$$;/&*>>>>{]:16celkj!",
")]{~'@##@@@%!)-=*>>>>~(jkl0051:(",
">{]',######%!)>*;$$++',mj:p44|_.",
"^-)!%####@@,']{~'%%@@@@,(]{}}/&^",
"^-)!%@@@@%%'~{]',@@##%%'~{]));*^",
" /;$$++++$$;*>$%@####,']{~'!!'~-",
"=&/........*=-$%@###@'~{]',@@,'$",
"==           .$@####@+/>$!@###@%"};
