/* XPM */
static char * item_xpm[] = {
"32 32 58 1",
" 	c #6C77A5",
".	c #7A87AE",
"+	c #94A4BE",
"@	c #A2B4C7",
"#	c #A1B4C6",
"$	c #95A5BE",
"%	c #A3B5C7",
"&	c #707BA8",
"*	c #7581AB",
"=	c #6F7AA7",
"-	c #7A86AD",
";	c #8A99B8",
">	c #7986AD",
",	c #9FB1C5",
"'	c #98A9C1",
")	c #96A6C0",
"!	c #A4B6C9",
"~	c #8491B4",
"{	c #808DB2",
"]	c #8E9DBB",
"^	c #6B76A4",
"/	c #7783AD",
"(	c #9AA9C3",
"_	c #7283A3",
":	c #779D99",
"<	c #86A6A2",
"[	c #90A7B7",
"}	c #7B86B0",
"|	c #5D7B8B",
"1	c #3D8654",
"2	c #6B8792",
"3	c #7D86B4",
"4	c #607F84",
"5	c #308833",
"6	c #2E872A",
"7	c #548366",
"8	c #668493",
"9	c #869AB2",
"0	c #5A2314",
"a	c #A1B3C6",
"b	c #3F3B93",
"c	c #724930",
"d	c #95714B",
"e	c #C08B4C",
"f	c #C2D2D9",
"g	c #190657",
"h	c #6E79A6",
"i	c #99B3AA",
"j	c #9CB2BE",
"k	c #74A56D",
"l	c #649E35",
"m	c #88ACA7",
"n	c #539F19",
"o	c #579F20",
"p	c #3A9332",
"q	c #4E9A5E",
"r	c #57943C",
"s	c #6F8C89",
" .+@####@$.          .$@########",
" .+@###@%$.&*......*=-$%@#######",
" .+@###@%$-*;$$++$$;*>$%@#####@@",
" -$%%@@,';*>)!%@@%%'~{]',@@@@,'+",
"^>$!%%%'~*=-)!%##@@,']{~'%%%%'~/",
">{])$$$]{>>{]',@@##@%$>*;$$$$]{>",
")]{>>>>{]))]{~(!%##@%$-=*>>>>{]$",
"!).=*>>~'!!$>_:<[(,%%$-=*>>>>~'!",
"!)-*;$+',%%)}|112~(!!$>*;$$++',@",
");*>)!%@#@%)3456789))]{~'%%@@@@#",
">*=-)!%#0000000000000000,@@##@@@",
">>>{]',@0abcddeeeeddcba0@###@,'$",
"+$$]{~'!0fbccccccccccbf0@##@%'~>",
"%!!)>*;)0fbdeeeeeeeedbf0,@@,';*^",
"%!!)-=*}0fbccccccccccbf0(!!'~*= ",
"+$$;/&*}0abddeeeeeeddba0;))]{>-.",
">>>*&/;)0abcccbbbgcccba0/.-{]$$$",
">>>*=.)!gabcddbffgddcba0&^^>$!%@",
"+$$;*-)!gabgggbfaggggbag/^^>$%%#",
"@%!)>*;'ghbcccbhhgcccbhg.=/~'@##",
"#%!)-=*~ghb000gggg000bhg-*;(,###",
"#,']{>>{ghbccccccccccbhg/_<ij!@#",
"@'~{]))]ghbccccccccccbhg&2kki!@#",
"!$>/$!!'gggggggggggggggg|7llkmj@",
"!$>/+%%,'++$$;/&*>>>>{]:16nopqm!",
")]{~'@##@@@%!)-=*>>>>~(mqprr51:(",
">{]',######%!)>*;$$++',jm:s44|_.",
"^-)!%####@@,']{~'%%@@@@,(]{}}/&^",
"^-)!%@@@@%%'~{]',@@##%%'~{]));*^",
" /;$$++++$$;*>$%@####,']{~'!!'~-",
"=&/........*=-$%@###@'~{]',@@,'$",
"==           .$@####@+/>$!@###@%"};
