/* XPM */
static char * player_xpm[] = {
"32 32 11 1",
" 	c #96724C",
".	c #8E6945",
"+	c #795135",
"@	c #72482F",
"#	c #886140",
"$	c #80583A",
"%	c #6D4029",
"&	c #663521",
"*	c #5F2B1A",
"=	c #592112",
"-	c #5A2314",
" .+@@@@@@@@@@+.  .+@@@@+..+@@@@@",
".#$+++@@++++@+.  .+@+++$##$+++@@",
"+$#..#++#..#++.  .++#..#$$#..#+@",
"@+. .#++#.#$@@$##$@@$#.#++. .#$+",
"@+..$+@+++%&**&&&&**&%++@+..$$#.",
"+$##+@%%%&*==-********&%%@##++. ",
".#$+@%&***===*&%%%%%%&***&@+@+. ",
" .$+@&*-*****&%%%%%%@%&*-*&%@+#.",
"  .$%*-*&%%%%%*****&%@%&*-*&%@++",
"  .$&==*&%@@%&*====*&%@%&*-*%@++",
" .$@*==-*&%%&*-=----*&%@%&**%+#.",
".#@&*-**-*&&*=------=*&%@%**%+. ",
"+@&*-*&&*-**----------*&%%**%+. ",
"+@*==*%%&*-=----------=*%%**@$#.",
".$&==*%@%&*=----------=*%%*&$#$+",
" #&==*%@@%*=----------=*%%&%#.+@",
" #&==*%@+%*=----------=*%@%+..+@",
".$%*-*%@%&*=----------=*%@@+##+@",
"++%&**%%&*-=----------=*%@@@++@@",
"@@+@**%%&***--------=-*&@++@%%++",
"@+#$&*%@%%%&*=-----==*&@##+%*&$.",
"+$#$&-&%@++@&*-====-&%+$#$@%&%$.",
".#$@*=*&%+##@&*====&+#.#@&*&+$$+",
".#$@%&--&@##$+%&&&&%#.#+*-*@..$+",
"+$#.#+*=-&@$#.######$@%*-*+.  ..",
"+$#. .@&**&@$#.....#$@%&*%$.  ..",
".#$$. .$@&**&%+++++$#.#$@%+$..$+",
" .++#..#$+%&**%@+++$. .#+@@+##$+",
" .+@+++$#.#$@%%+#... .$+@@@@+$#.",
" .$++++$#..#$++$#... .+@++++@+. ",
"  .....#$++$#..#$++$..++#..#++. ",
"       .+@@+.  .+@@+..++.  .++. "};
