/* XPM */
static char * wall_xpm[] = {
"32 32 10 1",
" 	c #DFF8F8",
".	c #D8F0F2",
"+	c #C9DCE1",
"@	c #C2D2D9",
"#	c #BACAD4",
"$	c #A8B9CA",
"%	c #AFC2D2",
"&	c #CFE6EC",
"*	c #A0B2C5",
"=	c #CAE0E6",
" .+@@@@@@@@@@#$%&.+@@@@@@@@@@#$*",
" .+@@@@@@@@@@#$%&.+@@@@@@@@@@#$*",
" .+@@@@@@@@@@#$%&.+@@@@@@@@@@#$*",
" .+@@@@@@@@@@#$%&.+@@@@@@@@@@#$*",
" .+@@@@@@@@@@#$%&.+@@@@@@@@@@#$*",
" .+@@@@@@@@@@#$%&.+@@@@@@@@@@#$*",
" .+@@@@@@@@@@#$%&.+@@@@@@@@@@#$*",
" .+@@@@@@@@@@#$%&.+@@@@@@@@@@#$*",
" .+@@@@@@@@@@#$%&.+@@@@@@@@@@#$*",
" .+@@@@@@@@@@#$%&.+@@@@@@@@@@#$*",
" .+@@@@@@@@@@#$%&.+@@@@@@@@@@#$*",
" .=++++++++++@$%&.=++++++++++@$*",
"  ...........=%%& ...........=%*",
"&&&&&&&&&&&&&+%$+&&&&&&&&&&&&+%*",
"%%%%%%%%%%%%%$$*%%%%%%%%%%%%%%**",
"%%$$$$$$$$$$$$*$%%$$$$$$$$$$$$**",
"&=@##########%$%+=@##########%$*",
" .+@@@@@@@@@@#$%&.+@@@@@@@@@@#$*",
" .+@@@@@@@@@@#$%&.+@@@@@@@@@@#$*",
" .+@@@@@@@@@@#$%&.+@@@@@@@@@@#$*",
" .+@@@@@@@@@@#$%&.+@@@@@@@@@@#$*",
" .+@@@@@@@@@@#$%&.+@@@@@@@@@@#$*",
" .+@@@@@@@@@@#$%&.+@@@@@@@@@@#$*",
" .+@@@@@@@@@@#$%&.+@@@@@@@@@@#$*",
" .+@@@@@@@@@@#$%&.+@@@@@@@@@@#$*",
" .+@@@@@@@@@@#$%&.+@@@@@@@@@@#$*",
" .+@@@@@@@@@@#$%&.+@@@@@@@@@@#$*",
" .=++++++++++@$%&.=++++++++++@$*",
"  ...........=%%& ...........=%*",
"&&&&&&&&&&&&&+%$+&&&&&&&&&&&&+%*",
"%%%%%%%%%%%%%%*$%%%%%%%%%%%%%%**",
"********************************"};
